<?xml version="1.0" standalone="no"?>
<!DOCTYPE svg PUBLIC "-//W3C//DTD SVG 20010904//EN"
 "http://www.w3.org/TR/2001/REC-SVG-20010904/DTD/svg10.dtd">
<svg version="1.0" xmlns="http://www.w3.org/2000/svg"
 width="192.000000pt" height="192.000000pt" viewBox="0 0 192.000000 192.000000"
 preserveAspectRatio="xMidYMid meet">
<metadata>
Created by potrace 1.16, written by Peter Selinger 2001-2019
</metadata>
<g transform="translate(0.000000,192.000000) scale(0.100000,-0.100000)"
fill="#000000" stroke="none">
<path d="M948 1533 c-10 -2 -18 -11 -18 -19 0 -8 -7 -14 -15 -14 -8 0 -15 -7
-15 -15 0 -8 -7 -15 -15 -15 -8 0 -15 -7 -15 -15 0 -8 -6 -15 -14 -15 -8 0
-17 -13 -21 -30 -4 -16 -13 -30 -21 -30 -8 0 -14 -6 -14 -14 0 -8 -13 -17 -29
-21 -16 -3 -32 -13 -35 -21 -3 -8 -17 -14 -31 -14 -15 0 -33 -7 -41 -15 -9 -8
-24 -15 -35 -15 -15 0 -19 -7 -19 -30 0 -18 -6 -33 -15 -36 -10 -4 -15 -20
-15 -44 0 -23 -8 -46 -20 -60 -11 -13 -20 -27 -20 -32 0 -21 -46 -51 -86 -56
-24 -2 -44 -9 -44 -13 0 -5 -11 -9 -25 -9 -14 0 -25 5 -25 10 0 6 -16 10 -35
10 -22 0 -38 6 -41 15 -4 8 -12 15 -20 15 -8 0 -22 9 -31 20 -10 11 -23 20
-30 20 -7 0 -13 7 -13 15 0 8 -7 15 -15 15 -8 0 -15 7 -15 15 0 10 -10 15 -30
15 -20 0 -30 -5 -30 -15 0 -8 -6 -15 -13 -15 -7 0 -24 -13 -37 -30 -14 -16
-31 -29 -37 -30 -19 0 -17 -70 2 -70 8 0 15 7 15 15 0 8 9 15 20 15 11 0 20 6
20 14 0 8 7 16 15 20 8 3 15 12 15 21 0 11 11 15 45 15 29 0 45 -4 45 -12 0
-13 43 -58 55 -58 3 0 13 -7 21 -15 9 -8 30 -15 49 -15 29 0 34 -4 40 -30 4
-16 10 -30 15 -30 5 0 11 -14 15 -30 5 -25 11 -30 36 -30 30 0 38 13 16 27
-19 11 -28 41 -21 69 6 22 11 24 65 24 46 0 59 3 59 15 0 8 7 15 16 15 9 0 18
9 21 20 3 11 12 20 19 20 9 0 14 11 14 30 0 20 5 30 15 30 11 0 15 12 15 50 0
38 4 50 15 50 8 0 15 7 15 15 0 8 9 15 20 15 11 0 20 7 20 15 0 10 10 15 30
15 19 0 30 5 30 14 0 8 14 17 30 21 17 4 30 13 30 21 0 8 7 14 15 14 8 0 15 7
15 15 0 8 9 23 20 32 11 10 20 23 20 30 0 7 7 13 15 13 8 0 15 7 15 15 0 10
10 15 30 15 20 0 30 -5 30 -15 0 -8 -7 -15 -15 -15 -8 0 -15 -7 -15 -15 0 -11
12 -15 51 -15 43 0 50 -3 47 -17 -2 -14 -15 -19 -51 -21 -98 -6 -35 -32 79
-32 50 0 64 -3 64 -15 0 -8 7 -15 15 -15 8 0 15 -7 15 -14 0 -11 -14 -16 -47
-18 -66 -4 -70 -28 -4 -28 50 0 51 -1 51 -30 0 -20 -5 -30 -15 -30 -8 0 -15 5
-15 10 0 6 -28 10 -65 10 -37 0 -65 -4 -65 -10 0 -5 23 -10 50 -10 43 0 50 -3
50 -20 0 -18 7 -20 74 -20 68 0 74 -2 80 -22 9 -35 8 -38 -14 -38 -11 0 -20
-7 -20 -15 0 -10 11 -15 35 -15 29 0 35 -4 35 -21 0 -21 -4 -21 -61 -16 -35 3
-65 11 -70 19 -13 20 -184 19 -184 -2 0 -11 13 -16 48 -18 33 -2 47 -7 47 -18
0 -11 15 -14 65 -14 51 0 65 -3 65 -15 0 -12 -14 -15 -65 -15 -51 0 -65 3 -65
15 0 12 -14 15 -65 15 -51 0 -65 -3 -65 -15 0 -12 14 -15 65 -15 l65 0 0 -30
c0 -17 -5 -30 -12 -30 -16 0 -58 -44 -58 -59 0 -6 -7 -11 -15 -11 -8 0 -15 -7
-15 -15 0 -8 -7 -15 -15 -15 -10 0 -15 -10 -15 -30 0 -20 -5 -30 -15 -30 -8 0
-15 -9 -15 -20 0 -11 7 -20 15 -20 8 0 15 7 15 15 0 8 7 15 15 15 8 0 15 9 15
20 0 11 7 20 15 20 8 0 15 7 15 15 0 8 7 15 15 15 8 0 15 7 15 15 0 8 7 15 16
15 9 0 18 9 21 20 3 11 11 20 18 20 7 0 15 5 17 12 2 6 31 13 66 16 44 3 62 8
62 18 0 9 11 14 30 14 20 0 30 5 30 15 0 10 10 15 30 15 20 0 30 5 30 15 0 8
9 15 20 15 11 0 20 6 20 14 0 8 14 17 30 21 17 4 30 13 30 21 0 21 218 21 226
-1 4 -8 16 -15 28 -15 48 0 66 -11 66 -41 0 -19 -5 -29 -15 -29 -8 0 -15 -7
-15 -15 0 -11 11 -15 41 -15 50 0 89 -31 89 -72 0 -18 5 -28 15 -28 12 0 15
14 15 65 0 58 -2 65 -20 65 -11 0 -20 7 -20 15 0 8 -7 15 -15 15 -8 0 -15 7
-15 15 0 8 -7 15 -15 15 -8 0 -15 7 -15 15 0 8 -7 15 -15 15 -8 0 -15 9 -15
20 0 11 -7 20 -15 20 -8 0 -15 7 -15 15 0 8 -7 15 -15 15 -8 0 -15 7 -15 15 0
8 -7 15 -15 15 -8 0 -15 7 -15 15 0 9 -6 18 -14 21 -8 3 -18 19 -21 35 -5 24
-12 29 -36 29 -19 0 -29 -5 -29 -15 0 -8 -6 -15 -13 -15 -14 0 -40 -27 -50
-53 -3 -9 -13 -17 -22 -17 -8 0 -15 -7 -15 -15 0 -8 -7 -15 -15 -15 -8 0 -15
-7 -15 -15 0 -8 -7 -15 -15 -15 -8 0 -15 -7 -15 -15 0 -10 -11 -15 -35 -15
-24 0 -35 5 -35 15 0 8 -7 15 -15 15 -8 0 -15 7 -15 15 0 8 -7 15 -15 15 -8 0
-15 9 -15 20 0 11 -7 20 -15 20 -9 0 -15 9 -15 25 0 15 -6 25 -15 25 -10 0
-16 16 -21 50 -4 28 -10 50 -14 50 -4 0 -10 14 -14 30 -4 24 -12 32 -36 36
-16 4 -30 13 -30 20 0 8 -9 14 -20 14 -11 0 -20 7 -20 15 0 9 -9 15 -25 15
-14 0 -25 5 -25 11 0 14 -74 89 -86 88 -5 -1 -17 -3 -26 -6z"/>
<path d="M60 815 c0 -10 -10 -15 -30 -15 -29 0 -30 -2 -30 -44 0 -46 11 -56
68 -56 13 0 22 -6 22 -15 0 -8 9 -15 20 -15 11 0 20 -7 20 -15 0 -8 7 -15 15
-15 8 0 15 -7 15 -15 0 -8 7 -15 15 -15 8 0 15 7 15 15 0 8 -7 15 -15 15 -8 0
-15 7 -15 15 0 8 -7 15 -15 15 -8 0 -15 7 -15 15 0 8 -7 15 -15 15 -8 0 -15 6
-15 14 0 8 -3 22 -6 31 -5 11 0 18 15 22 15 4 21 13 21 34 0 26 -3 29 -35 29
-24 0 -35 -5 -35 -15z"/>
<path d="M1220 655 c0 -8 -7 -15 -15 -15 -8 0 -15 -7 -15 -15 0 -8 -6 -15 -14
-15 -8 0 -18 -14 -21 -32 -4 -18 -11 -35 -15 -38 -5 -3 -12 -18 -15 -33 -6
-21 -4 -27 9 -27 11 0 16 -9 16 -30 0 -19 5 -30 14 -30 7 0 16 -9 19 -20 3
-11 12 -20 21 -20 9 0 16 -7 16 -15 0 -10 10 -15 29 -15 16 0 31 -5 33 -12 3
-8 33 -14 81 -16 63 -3 77 -2 77 11 0 8 13 17 30 21 24 4 30 11 30 31 0 16 -6
25 -15 25 -8 0 -15 -7 -15 -15 0 -8 -7 -15 -15 -15 -8 0 -15 -7 -15 -15 0 -12
-16 -15 -80 -15 -64 0 -80 3 -80 15 0 8 -9 15 -19 15 -11 0 -33 14 -50 31 -29
28 -31 36 -31 100 0 55 3 69 15 69 8 0 15 7 15 15 0 8 6 15 14 15 8 0 16 7 20
15 3 9 18 15 36 15 20 0 30 5 30 15 0 11 -12 15 -45 15 -33 0 -45 -4 -45 -15z"/>
<path d="M1470 655 c0 -10 11 -15 35 -15 24 0 35 -5 35 -15 0 -10 10 -15 30
-15 20 0 30 -5 30 -15 0 -8 7 -15 15 -15 8 0 15 -7 15 -15 0 -8 7 -15 16 -15
9 0 18 -9 21 -20 3 -11 12 -20 19 -20 8 0 14 -7 14 -15 0 -8 7 -15 15 -15 8 0
15 -7 15 -15 0 -8 7 -15 15 -15 8 0 15 -7 15 -15 0 -8 7 -15 15 -15 8 0 15 -7
15 -15 0 -8 7 -15 16 -15 9 0 18 -9 21 -20 3 -11 12 -20 19 -20 8 0 14 -7 14
-15 0 -8 7 -15 15 -15 8 0 15 -7 15 -15 0 -8 7 -15 15 -15 10 0 15 10 15 30 0
23 -4 30 -20 30 -11 0 -20 7 -20 15 0 8 -7 15 -15 15 -8 0 -15 7 -15 15 0 8
-7 15 -15 15 -8 0 -15 6 -15 14 0 8 -7 16 -15 20 -8 3 -15 12 -15 21 0 8 -7
15 -15 15 -8 0 -15 7 -15 15 0 8 -7 15 -15 15 -8 0 -15 7 -15 15 0 8 -9 15
-20 15 -11 0 -20 7 -20 15 0 8 -7 15 -15 15 -8 0 -23 9 -32 20 -10 11 -23 20
-30 20 -7 0 -13 7 -13 15 0 10 -10 15 -30 15 -20 0 -30 5 -30 15 0 10 -11 15
-35 15 -24 0 -35 -5 -35 -15z"/>
</g>
</svg>
